<svg version="1.1" id="Layer_1" xmlns="http://www.w3.org/2000/svg" xmlns:xlink="http://www.w3.org/1999/xlink" x="0px" y="0px"
	 width="14.4px" height="14.508px" viewBox="0 0 14.4 14.508" enable-background="new 0 0 14.4 14.508" xml:space="preserve">
<path fill="#D9E1E8" d="M14.4,7.201C14.4,3.222,11.178,0,7.2,0C3.222,0,0,3.222,0,7.201c0,0.018,0,0.035,0,0.054
	c0,0.018,0,0.036,0,0.054c0,3.979,3.223,7.2,7.2,7.2c3.979,0,7.2-3.221,7.2-7.2c0-0.018,0-0.036,0-0.054
	C14.4,7.236,14.4,7.218,14.4,7.201z M7.2,3.726c1.386,0,2.521,1.134,2.521,2.52c0,1.387-1.135,2.52-2.521,2.52
	s-2.52-1.133-2.52-2.52C4.68,4.86,5.814,3.726,7.2,3.726z M7.2,14.346c-1.943,0-3.708-0.791-4.985-2.068
	c0.827-1.963,2.735-3.33,4.985-3.33s4.158,1.367,4.986,3.312C10.908,13.537,9.143,14.346,7.2,14.346z"/>
</svg>
