<?xml version="1.0" encoding="utf-8"?>
<!-- Generator: Adobe Illustrator 17.1.0, SVG Export Plug-In . SVG Version: 6.00 Build 0)  -->
<!DOCTYPE svg PUBLIC "-//W3C//DTD SVG 1.0//EN" "http://www.w3.org/TR/2001/REC-SVG-20010904/DTD/svg10.dtd">
<svg version="1.0" xmlns="http://www.w3.org/2000/svg" xmlns:xlink="http://www.w3.org/1999/xlink" x="0px" y="0px"
	 viewBox="0 0 30 60" enable-background="new 0 0 30 60" width="30px" height="60px" xml:space="preserve">
<g id="Background_xA0_Image_1_">
</g>
<g id="Shape_3_3_" enable-background="new    ">
	<g id="Shape_3">
		<g>
			<path fill-rule="evenodd" clip-rule="evenodd" fill="#959EA5" d="M20.4,17.3c-0.2-0.3-4.3-3.1-4.3-3.1c-0.3-0.2-0.5-0.2-0.8-0.3
				c-0.4,0-0.9,0.1-1.4,0.6c-0.2,0.2-0.5,0.5-1,1c-0.3,0.3-0.5,0.5-0.6,0.6c0,0,0,0,0,0c-0.4-0.3-1.5-1.1-3.4-3.2
				c-1.9-2.1-2.3-3.3-2.4-3.7c0,0,0,0,0.1-0.1C6.7,8.9,7,8.7,7.3,8.6C7.7,8.3,8,8.1,8.3,7.8c0.5-0.4,0.8-0.9,0.8-1.3
				c0-0.3,0-0.6-0.1-0.9c0,0-2.2-4.5-2.4-4.8C6,0,4.7,0.2,4.2,0.5C0.5,2.1,0.1,4.9,0.1,5.7c0,0.6-0.1,5.8,4.5,11
				c4.9,5.6,8.8,6.3,9.9,6.3c0.1,0,0.3,0,0.4,0c1.5,0,4-0.7,5.4-3.3C20.4,19.3,21,18.1,20.4,17.3z M18.5,18.8
				c-1.3,2.4-3.8,2.2-3.9,2.2c-0.6,0-4.1-0.5-8.6-5.7c-4-4.6-4-9.1-4-9.6c0-0.7,0.3-2.3,2.9-3.4c0,0,0.1,0,0.2,0
				c0.5,0.9,1.7,3.4,1.9,3.9c0,0,0,0-0.1,0.1C6.8,6.5,6.5,6.7,6.2,6.8c-0.4,0.2-0.7,0.5-1,0.7C4.9,7.8,4.4,8.3,4.4,8.9
				c0,0.7,0.2,2.5,3,5.4c2.9,3.1,4.1,3.7,4.1,3.7c0.2,0.1,0.4,0.2,0.6,0.2c0.6,0.1,1.1-0.3,1.4-0.6c0.1-0.1,0.5-0.5,0.8-0.8
				c0.2-0.3,0.6-0.7,0.7-0.8c0,0,0.1,0,0.1-0.1c0.6,0.4,2.6,1.9,3.5,2.5C18.6,18.6,18.5,18.7,18.5,18.8z"/>
		</g>
	</g>
</g>
<g id="Shape_3_2_" enable-background="new    ">
	<g id="Shape_3_1_">
		<g>
			<path fill-rule="evenodd" clip-rule="evenodd" fill="#0012FF" d="M20.4,47.3c-0.2-0.3-4.3-3.1-4.3-3.1c-0.3-0.2-0.5-0.2-0.8-0.3
				c-0.4,0-0.9,0.1-1.4,0.6c-0.2,0.2-0.5,0.5-1,1c-0.3,0.3-0.5,0.5-0.6,0.6c0,0,0,0,0,0c-0.4-0.3-1.5-1.1-3.4-3.2
				c-1.9-2.1-2.3-3.3-2.4-3.7c0,0,0,0,0.1-0.1c0.3-0.2,0.5-0.4,0.8-0.6c0.4-0.2,0.7-0.5,1.1-0.8c0.5-0.4,0.8-0.9,0.8-1.3
				c0-0.3,0-0.6-0.1-0.9c0,0-2.2-4.5-2.4-4.8C6,30,4.7,30.2,4.2,30.5c-3.7,1.6-4.1,4.4-4.1,5.2c0,0.6-0.1,5.8,4.5,11
				c4.9,5.6,8.8,6.3,9.9,6.3c0.1,0,0.3,0,0.4,0c1.5,0,4-0.7,5.4-3.3C20.4,49.3,21,48.1,20.4,47.3z M18.5,48.8
				c-1.3,2.4-3.8,2.2-3.9,2.2c-0.6,0-4.1-0.5-8.6-5.7c-4-4.6-4-9.1-4-9.6c0-0.7,0.3-2.3,2.9-3.4c0,0,0.1,0,0.2,0
				c0.5,0.9,1.7,3.4,1.9,3.9c0,0,0,0-0.1,0.1c-0.2,0.2-0.5,0.4-0.8,0.6c-0.4,0.2-0.7,0.5-1,0.7c-0.3,0.3-0.8,0.7-0.8,1.3
				c0,0.7,0.2,2.5,3,5.4c2.9,3.1,4.1,3.7,4.1,3.7c0.2,0.1,0.4,0.2,0.6,0.2c0.6,0.1,1.1-0.3,1.4-0.6c0.1-0.1,0.5-0.5,0.8-0.8
				c0.2-0.3,0.6-0.7,0.7-0.8c0,0,0.1,0,0.1-0.1c0.6,0.4,2.6,1.9,3.5,2.5C18.6,48.6,18.5,48.7,18.5,48.8z"/>
		</g>
	</g>
</g>
</svg>
